<svg width="32" height="13" viewBox="0 0 32 13" fill="none" xmlns="http://www.w3.org/2000/svg">
<path d="M6.85387 0.851077C7.04814 0.656951 7.04879 0.341558 6.85532 0.146627C6.66184 -0.0483044 6.34751 -0.0489577 6.15323 0.145168L0.146135 6.14754C0.0525818 6.24102 -3.80291e-06 6.36804 2.07365e-10 6.50052C5.71067e-06 6.63299 0.0526047 6.76001 0.146164 6.85348L6.15326 12.8549C6.34755 13.049 6.66189 13.0483 6.85535 12.8533C7.04881 12.6584 7.04813 12.343 6.85384 12.1489L1.70004 7L31.5 7C31.7761 7 32 6.77614 32 6.5C32 6.22386 31.7761 6 31.5 6L1.7009 6L6.85387 0.851077Z" fill="#333333"/>
</svg>
