<svg width="137" height="24" viewBox="0 0 137 24" fill="none" xmlns="http://www.w3.org/2000/svg">
<path d="M19.9292 23.6022L14.2963 15.3149C15.7677 14.7624 16.9535 13.9006 17.8539 12.7293C18.7763 11.5359 19.2374 10 19.2374 8.12155V8.05525C19.2374 5.64641 18.4688 3.76796 16.9316 2.41989C15.4163 1.07182 13.2861 0.397789 10.5411 0.397789H0V23.6022H5.07288V16.1768H9.05872L13.9998 23.6022H19.9292ZM14.0987 8.38674C14.0987 9.38122 13.7583 10.1768 13.0775 10.7735C12.4187 11.3702 11.4634 11.6685 10.2116 11.6685H5.07288V5.00552H10.1128C11.3646 5.00552 12.3418 5.28177 13.0446 5.83425C13.7473 6.38674 14.0987 7.21547 14.0987 8.32044V8.38674Z" fill="white"/>
<path d="M47.2917 12V11.9337C47.2917 10.2762 46.9842 8.72928 46.3693 7.29282C45.7764 5.83425 44.9309 4.57458 43.8329 3.51381C42.7568 2.43094 41.4721 1.58011 39.9788 0.961325C38.4855 0.320442 36.8494 0 35.0706 0C33.2918 0 31.6448 0.320442 30.1295 0.961325C28.6362 1.58011 27.3405 2.44199 26.2425 3.54696C25.1664 4.62983 24.3209 5.90055 23.706 7.35912C23.0912 8.79558 22.7837 10.3425 22.7837 12V12.0663C22.7837 13.7238 23.0802 15.2818 23.6731 16.7403C24.288 18.1768 25.1335 19.4365 26.2095 20.5193C27.3076 21.5801 28.6032 22.4309 30.0966 23.0718C31.5899 23.6906 33.2259 24 35.0047 24C36.7835 24 38.4196 23.6906 39.9129 23.0718C41.4282 22.4309 42.7239 21.5691 43.7999 20.4862C44.898 19.3812 45.7544 18.1105 46.3693 16.674C46.9842 15.2155 47.2917 13.6575 47.2917 12ZM41.9882 12.0663C41.9882 13.0608 41.8125 14 41.4611 14.884C41.1317 15.7459 40.6596 16.5083 40.0447 17.1713C39.4517 17.8343 38.7271 18.3536 37.8706 18.7293C37.0141 19.105 36.0808 19.2928 35.0706 19.2928C34.0385 19.2928 33.0942 19.105 32.2377 18.7293C31.4032 18.3315 30.6675 17.8011 30.0307 17.1381C29.4158 16.4751 28.9327 15.7017 28.5813 14.8177C28.2519 13.9337 28.0872 12.9945 28.0872 12V11.9337C28.0872 10.9392 28.2519 10.011 28.5813 9.14917C28.9327 8.26519 29.4048 7.49171 29.9977 6.82873C30.6126 6.16574 31.3373 5.64641 32.1718 5.27072C33.0283 4.89503 33.9726 4.70718 35.0047 4.70718C36.0149 4.70718 36.9482 4.90608 37.8047 5.30387C38.6612 5.67956 39.3968 6.19889 40.0117 6.86188C40.6486 7.52486 41.1317 8.29834 41.4611 9.18232C41.8125 10.0663 41.9882 11.0055 41.9882 12V12.0663Z" fill="white"/>
<path d="M75.2785 12V11.9337C75.2785 10.2762 74.971 8.72928 74.3561 7.29282C73.7632 5.83425 72.9177 4.57458 71.8197 3.51381C70.7436 2.43094 69.4589 1.58011 67.9656 0.961325C66.4723 0.320442 64.8362 0 63.0574 0C61.2786 0 59.6316 0.320442 58.1163 0.961325C56.623 1.58011 55.3273 2.44199 54.2293 3.54696C53.1532 4.62983 52.3078 5.90055 51.6929 7.35912C51.078 8.79558 50.7705 10.3425 50.7705 12V12.0663C50.7705 13.7238 51.067 15.2818 51.6599 16.7403C52.2748 18.1768 53.1203 19.4365 54.1964 20.5193C55.2944 21.5801 56.5901 22.4309 58.0834 23.0718C59.5767 23.6906 61.2128 24 62.9916 24C64.7704 24 66.4064 23.6906 67.8997 23.0718C69.415 22.4309 70.7107 21.5691 71.7867 20.4862C72.8848 19.3812 73.7412 18.1105 74.3561 16.674C74.971 15.2155 75.2785 13.6575 75.2785 12ZM69.975 12.0663C69.975 13.0608 69.7993 14 69.4479 14.884C69.1185 15.7459 68.6464 16.5083 68.0315 17.1713C67.4386 17.8343 66.7139 18.3536 65.8574 18.7293C65.0009 19.105 64.0676 19.2928 63.0574 19.2928C62.0253 19.2928 61.081 19.105 60.2245 18.7293C59.39 18.3315 58.6543 17.8011 58.0175 17.1381C57.4026 16.4751 56.9195 15.7017 56.5681 14.8177C56.2387 13.9337 56.074 12.9945 56.074 12V11.9337C56.074 10.9392 56.2387 10.011 56.5681 9.14917C56.9195 8.26519 57.3916 7.49171 57.9846 6.82873C58.5994 6.16574 59.3241 5.64641 60.1586 5.27072C61.0151 4.89503 61.9594 4.70718 62.9916 4.70718C64.0017 4.70718 64.9351 4.90608 65.7915 5.30387C66.648 5.67956 67.3837 6.19889 67.9986 6.86188C68.6354 7.52486 69.1185 8.29834 69.4479 9.18232C69.7993 10.0663 69.975 11.0055 69.975 12V12.0663Z" fill="white"/>
<path d="M102.837 23.6022V0.397789H97.3689L91.3078 10.2099L85.2467 0.397789H79.7785V23.6022H84.7525V8.55248L91.176 18.3646H91.3078L97.7971 8.45304V23.6022H102.837Z" fill="white"/>
<path d="M113.68 23.6022V0.397789H108.607V23.6022H113.68Z" fill="white"/>
<path d="M137 23.6022V19.0608H124.482V14.1878H135.353V9.64641H124.482V4.93923H136.835V0.397789H119.443V23.6022H137Z" fill="white"/>
</svg>
