<svg width="28" height="30" viewBox="0 0 28 30" fill="none" xmlns="http://www.w3.org/2000/svg">
<path d="M10.2103 26.6953V22.6063C10.2102 21.5663 11.0581 20.7212 12.1087 20.7142H15.9568C17.0123 20.7142 17.868 21.5613 17.868 22.6063V22.6063V26.708C17.8677 27.591 18.5797 28.3127 19.4714 28.3334H22.0368C24.5941 28.3334 26.6673 26.281 26.6673 23.7492V23.7492V12.1172C26.6537 11.1212 26.1813 10.1859 25.3846 9.57746L16.6109 2.58048C15.0739 1.36217 12.8889 1.36217 11.3519 2.58048L2.61668 9.59016C1.817 10.1961 1.34383 11.133 1.33398 12.1299V23.7492C1.33398 26.281 3.40715 28.3334 5.96453 28.3334H8.52993C9.44379 28.3334 10.1846 27.6 10.1846 26.6953V26.6953" stroke="#200E32" stroke-width="2" stroke-linecap="round" stroke-linejoin="round"/>
</svg>
